<svg xmlns="http://www.w3.org/2000/svg" width="107.69" height="19.553" viewBox="0 0 107.69 19.553">
  <g id="Directions_Icon" data-name="Directions Icon" transform="translate(-1074.58 -703.224)">
    <circle id="Ellipse_1505" data-name="Ellipse 1505" cx="5" cy="5" r="5" transform="translate(1075.08 708)" fill="none" stroke="#fff" stroke-miterlimit="10" stroke-width="1"/>
    <rect id="Rectangle_1944" data-name="Rectangle 1944" width="2" height="2" transform="translate(1093.121 712)" fill="#fff"/>
    <rect id="Rectangle_1945" data-name="Rectangle 1945" width="2" height="2" transform="translate(1098.82 712)" fill="#fff"/>
    <rect id="Rectangle_1946" data-name="Rectangle 1946" width="2" height="2" transform="translate(1104.518 712)" fill="#fff"/>
    <rect id="Rectangle_1947" data-name="Rectangle 1947" width="2" height="2" transform="translate(1110.215 712)" fill="#fff"/>
    <rect id="Rectangle_1948" data-name="Rectangle 1948" width="2" height="2" transform="translate(1115.912 712)" fill="#fff"/>
    <rect id="Rectangle_1949" data-name="Rectangle 1949" width="2" height="2" transform="translate(1121.611 712)" fill="#fff"/>
    <rect id="Rectangle_1950" data-name="Rectangle 1950" width="2" height="2" transform="translate(1127.309 712)" fill="#fff"/>
    <rect id="Rectangle_1951" data-name="Rectangle 1951" width="2" height="2" transform="translate(1133.006 712)" fill="#fff"/>
    <rect id="Rectangle_1952" data-name="Rectangle 1952" width="2" height="2" transform="translate(1138.705 712)" fill="#fff"/>
    <rect id="Rectangle_1953" data-name="Rectangle 1953" width="2" height="2" transform="translate(1144.526 712)" fill="#fff"/>
    <rect id="Rectangle_1954" data-name="Rectangle 1954" width="2" height="2" transform="translate(1150.226 712)" fill="#fff"/>
    <rect id="Rectangle_1955" data-name="Rectangle 1955" width="2" height="2" transform="translate(1155.923 712)" fill="#fff"/>
    <rect id="Rectangle_1956" data-name="Rectangle 1956" width="2" height="2" transform="translate(1161.62 712)" fill="#fff"/>
    <path id="Path_6048" data-name="Path 6048" d="M1182.246,709.027a5.805,5.805,0,0,0-5.6-5.8c-.074,0-.357,0-.429,0a5.807,5.807,0,0,0-5.6,5.8s-.728,3.565,5.811,13.748v0h0v0C1182.975,712.592,1182.246,709.027,1182.246,709.027Zm-5.812,3.848a3.609,3.609,0,1,1,3.609-3.609A3.609,3.609,0,0,1,1176.434,712.875Z" fill="#fff"/>
  </g>
</svg>
